<?xml version="1.0" standalone="no"?>
<!DOCTYPE svg PUBLIC "-//W3C//DTD SVG 20010904//EN"
 "http://www.w3.org/TR/2001/REC-SVG-20010904/DTD/svg10.dtd">
<svg version="1.0" xmlns="http://www.w3.org/2000/svg"
 width="700.000000pt" height="700.000000pt" viewBox="0 0 700.000000 700.000000"
 preserveAspectRatio="xMidYMid meet">
<metadata>
Created by potrace 1.14, written by Peter Selinger 2001-2017
</metadata>
<g transform="translate(0.000000,700.000000) scale(0.100000,-0.100000)"
fill="#000000" stroke="none">
<path d="M3446 5883 c-2 -2 -16 -6 -31 -9 -60 -11 -134 -48 -430 -219 -367
-212 -761 -438 -1010 -581 l-180 -104 -50 16 c-45 13 -137 19 -175 11 -65 -14
-86 -22 -124 -43 -229 -128 -269 -440 -79 -621 118 -111 289 -138 436 -68 142
69 224 213 215 378 l-5 77 351 202 c193 110 515 296 716 412 l365 211 60 -1
c60 0 61 0 395 -195 184 -108 349 -204 365 -213 17 -9 37 -21 45 -26 8 -5 40
-24 70 -41 104 -61 245 -142 305 -176 33 -19 74 -43 92 -54 l32 -20 25 48 c35
70 92 143 142 183 l43 34 -27 17 c-76 45 -199 116 -212 123 -8 4 -24 12 -35
19 -19 12 -111 65 -712 414 -287 167 -361 204 -423 218 -36 8 -158 14 -164 8z"/>
<path d="M5315 4998 c-145 -20 -249 -94 -308 -221 -82 -173 5 -420 179 -506
l44 -22 0 -804 c0 -782 -1 -805 -20 -837 -18 -31 -121 -97 -359 -229 -25 -14
-91 -52 -146 -84 -55 -32 -117 -68 -137 -79 -43 -25 -186 -107 -210 -121 -123
-72 -200 -115 -207 -115 -5 0 -11 -3 -13 -8 -1 -4 -41 -29 -88 -56 -106 -60
-107 -61 -88 -83 41 -46 85 -167 91 -248 2 -22 7 -39 13 -38 5 1 187 104 404
229 217 124 418 239 445 255 261 146 453 262 490 297 81 76 131 163 151 264 4
18 7 405 8 860 l1 828 25 17 c70 46 131 136 152 223 66 264 -159 516 -427 478z"/>
<path d="M3915 4834 c-35 -35 -70 -64 -76 -64 -7 0 -9 -3 -6 -6 8 -9 -225
-244 -235 -238 -4 3 -5 -3 -1 -12 5 -14 3 -16 -11 -11 -9 4 -15 3 -12 -2 3 -4
-9 -22 -27 -39 l-33 -32 -41 44 c-23 25 -39 47 -35 50 3 3 0 6 -7 6 -6 0 -27
16 -45 35 -19 19 -48 38 -65 41 -19 4 -28 11 -24 18 4 6 0 5 -9 -2 -9 -7 -20
-12 -24 -11 -16 4 -48 -14 -71 -37 -37 -40 -52 -120 -28 -153 6 -7 45 -51 88
-96 42 -45 74 -85 70 -89 -5 -4 -1 -6 7 -4 9 2 14 -3 12 -12 -2 -8 0 -12 4 -8
4 4 33 -17 66 -47 33 -30 67 -55 76 -56 9 0 29 -2 44 -3 17 -1 39 8 59 27 63
54 119 107 119 112 0 14 82 85 92 79 7 -4 8 -3 4 4 -7 12 56 82 74 82 6 0 9 4
6 8 -7 12 88 104 99 95 4 -5 5 -3 2 3 -4 6 22 38 56 72 34 33 70 70 79 81 19
23 44 80 43 96 -4 41 -20 76 -46 101 -24 23 -40 29 -84 31 l-55 2 -65 -65z"/>
<path d="M3795 4811 c-3 -5 -2 -12 3 -15 5 -3 9 1 9 9 0 17 -3 19 -12 6z"/>
<path d="M2960 4628 c-71 -45 -151 -91 -190 -110 -14 -7 -27 -15 -30 -19 -9
-11 -209 -121 -216 -119 -4 1 -11 -5 -16 -14 -5 -9 -13 -16 -19 -16 -13 0 -97
-91 -105 -113 -3 -9 -8 -15 -12 -13 -4 2 -8 -8 -9 -22 0 -15 -6 -28 -12 -30
-5 -2 -7 -10 -4 -18 3 -8 1 -14 -5 -14 -6 0 -10 -99 -10 -262 -1 -145 -1 -276
-2 -291 0 -20 -4 -26 -12 -21 -9 6 -9 3 1 -9 10 -13 13 -59 12 -204 -3 -306 0
-338 43 -421 9 -17 17 -34 17 -36 1 -18 92 -93 158 -132 45 -26 78 -51 74 -57
-3 -6 -1 -7 5 -3 6 3 33 -7 60 -24 27 -16 54 -30 61 -30 6 0 11 -4 11 -10 0
-5 7 -10 15 -10 8 0 15 -5 15 -11 0 -5 4 -8 9 -5 5 3 14 -1 21 -9 7 -8 16 -15
20 -15 8 0 169 -94 186 -108 6 -5 20 -13 32 -16 13 -4 19 -12 16 -18 -4 -6 -2
-8 4 -4 10 6 174 -88 180 -104 2 -5 9 -7 17 -4 7 3 16 1 20 -5 8 -14 89 -51
110 -51 9 0 14 -4 11 -9 -4 -5 3 -7 14 -4 11 3 20 1 20 -5 0 -11 74 -8 110 6
14 5 35 8 47 7 12 -1 20 2 18 6 -6 9 24 21 36 13 5 -3 9 -1 9 5 0 5 57 42 128
81 70 40 135 79 145 88 9 8 20 13 23 9 3 -3 14 3 25 14 10 10 28 19 40 19 11
0 17 4 14 10 -3 5 6 12 20 16 14 3 25 10 25 16 0 5 5 6 10 3 6 -3 10 -1 10 5
0 6 5 8 10 5 6 -3 10 -1 10 5 0 5 17 18 38 28 20 9 39 20 42 23 14 17 123 68
132 63 7 -5 8 -2 4 5 -5 8 0 14 13 18 12 3 21 10 21 15 0 6 7 7 16 4 8 -3 12
-2 9 4 -3 6 -2 10 2 10 5 0 40 20 77 45 38 24 73 42 79 38 6 -3 7 -1 3 6 -4 7
5 26 22 46 17 18 33 43 37 54 3 12 11 18 17 15 7 -4 8 -2 4 5 -9 14 3 53 14
46 5 -3 12 -1 15 5 4 6 1 9 -7 8 -7 -2 -11 4 -9 12 2 8 5 53 7 99 2 49 8 87
15 92 8 5 8 8 -1 11 -16 5 -21 338 -5 338 6 0 4 4 -4 9 -11 7 -10 11 5 20 11
6 13 11 7 11 -7 0 -13 11 -13 25 0 14 6 25 13 25 8 0 8 3 -2 9 -11 7 -14 33
-13 111 1 56 4 106 7 110 3 5 1 11 -5 15 -7 4 -7 12 0 24 5 10 7 21 4 24 -3 3
-7 47 -10 98 -7 133 -8 148 -16 143 -9 -6 -28 53 -20 62 4 4 2 5 -4 1 -5 -3
-19 6 -30 20 -27 37 -71 83 -79 83 -15 0 -74 48 -67 55 4 5 1 5 -6 1 -7 -5
-33 5 -61 23 -26 17 -50 31 -54 31 -3 0 -29 14 -57 32 -45 28 -54 30 -64 18
-6 -8 -28 -30 -49 -47 -21 -18 -35 -33 -32 -33 3 0 -17 -23 -45 -52 -56 -57
-58 -51 31 -100 78 -43 93 -53 106 -65 7 -6 22 -15 33 -18 20 -6 20 -7 -4 -26
-13 -10 -27 -19 -30 -19 -5 0 -77 -42 -136 -79 -14 -8 -28 -14 -32 -13 -5 1
-8 -3 -8 -9 0 -5 -4 -7 -10 -4 -5 3 -10 1 -10 -4 0 -6 -6 -11 -14 -11 -8 0
-16 -4 -18 -8 -1 -4 -39 -29 -82 -55 -54 -32 -86 -46 -100 -42 -14 4 -17 3 -8
-3 10 -7 7 -13 -15 -27 -15 -10 -33 -18 -40 -18 -7 0 -13 -4 -13 -8 0 -8 -112
-74 -119 -70 -2 2 -7 -1 -10 -6 -3 -5 -28 -22 -55 -37 l-48 -28 -29 21 c-15
12 -33 21 -39 21 -6 0 -8 4 -5 10 3 6 -1 7 -9 4 -9 -3 -18 0 -21 8 -3 8 -11
15 -18 15 -14 0 -190 104 -195 115 -2 5 -8 8 -14 8 -20 0 -216 124 -211 134 4
5 1 6 -6 2 -7 -5 -28 2 -49 16 -20 13 -49 30 -64 37 -16 8 -28 18 -28 23 0 4
-9 8 -20 8 -11 0 -20 4 -20 8 0 5 -10 14 -22 20 -20 9 -15 14 8 11 4 0 10 5
14 12 8 12 103 70 153 91 15 7 27 15 27 19 0 4 14 12 30 19 34 14 35 16 17 61
-16 40 -15 185 1 176 4 -3 8 9 8 26 1 17 6 33 13 35 6 2 11 10 11 17 0 7 6 16
13 18 8 4 7 5 -3 6 -8 0 -44 -19 -80 -41z m-325 -698 c19 -11 52 -30 73 -41
20 -12 48 -29 62 -38 14 -9 37 -23 53 -31 15 -7 27 -17 27 -22 0 -5 4 -7 9 -3
5 3 16 -2 24 -10 9 -8 20 -15 24 -15 5 0 20 -10 33 -22 14 -13 25 -21 25 -20
0 8 55 -22 55 -30 0 -5 4 -7 9 -4 5 3 14 -1 21 -9 7 -8 18 -15 25 -15 8 0 15
-3 17 -7 2 -5 26 -20 53 -34 37 -20 50 -32 49 -48 -1 -11 3 -18 7 -15 5 3 7
10 4 15 -10 16 6 10 61 -22 30 -17 52 -34 49 -39 -3 -5 0 -12 6 -16 8 -4 9 -3
5 4 -9 15 -1 15 25 2 18 -10 19 -26 19 -465 l-1 -454 -44 26 c-24 15 -41 31
-39 35 3 4 -2 5 -10 2 -9 -3 -16 -1 -16 5 0 6 -6 11 -13 11 -21 0 -182 100
-179 112 1 5 -2 7 -8 3 -11 -7 -70 24 -70 37 0 4 -3 7 -7 7 -22 -4 -33 2 -27
14 4 6 4 9 0 5 -10 -9 -176 80 -176 95 0 4 -9 7 -20 7 -11 0 -20 4 -20 8 0 4
-24 20 -54 35 -73 37 -90 65 -92 155 -1 47 3 72 10 72 8 0 8 2 0 8 -14 8 -16
62 -3 62 5 0 9 5 9 11 0 5 -4 7 -10 4 -5 -3 -10 1 -10 10 0 13 4 14 23 4 12
-7 24 -15 27 -18 3 -3 27 -17 53 -31 27 -14 57 -33 68 -43 10 -10 19 -15 19
-12 0 3 13 -2 29 -11 17 -10 27 -22 24 -27 -3 -6 -1 -7 5 -3 11 7 60 -19 74
-39 4 -5 8 -6 8 -1 0 5 9 1 20 -9 15 -14 38 -19 85 -20 35 -1 62 2 59 6 -2 4
4 13 15 18 25 14 51 86 48 132 -1 21 -5 35 -9 32 -5 -2 -8 0 -8 5 0 14 -36 52
-49 52 -6 0 -11 4 -11 8 0 4 -12 13 -27 19 -16 7 -35 17 -43 22 -64 42 -202
121 -209 121 -6 0 -15 8 -20 18 -6 9 -11 14 -11 10 0 -7 -120 59 -130 72 -3 4
-12 9 -20 12 -19 7 -26 68 -8 68 10 0 10 2 1 8 -14 9 -13 104 2 114 6 5 6 8
-1 8 -7 0 -11 22 -11 60 0 33 2 60 4 60 1 0 18 -9 38 -20z m1579 -105 c-4 -8
-10 -15 -15 -15 -5 0 -8 -3 -7 -7 1 -5 -8 -28 -21 -51 -22 -44 -22 -44 -44
-25 l-22 18 18 -22 c18 -21 18 -23 -20 -93 -21 -39 -46 -80 -56 -91 -10 -10
-15 -19 -12 -19 3 0 -2 -13 -11 -29 -10 -17 -21 -28 -26 -25 -4 3 -5 -2 -2
-11 4 -9 0 -23 -9 -33 -8 -9 -34 -52 -57 -96 -22 -43 -53 -97 -68 -120 -14
-22 -27 -43 -28 -46 -5 -21 -18 -39 -25 -34 -5 3 -6 -2 -3 -10 3 -9 1 -16 -5
-16 -6 0 -10 -6 -9 -12 2 -7 -3 -12 -10 -10 -8 1 -11 -2 -7 -7 6 -10 -7 -37
-66 -136 -16 -27 -34 -60 -39 -73 -5 -13 -14 -20 -20 -17 -5 3 -7 0 -4 -8 3
-8 1 -18 -5 -22 -16 -10 -15 187 2 204 10 11 10 13 0 7 -10 -6 -13 43 -13 232
l0 238 40 23 c22 12 45 19 52 15 7 -4 8 -3 4 4 -4 7 7 18 26 28 18 9 35 20 38
24 13 17 121 70 131 64 7 -4 9 -3 6 3 -7 11 41 49 49 40 3 -3 17 6 31 19 14
13 32 24 39 24 8 0 14 4 14 9 0 5 10 13 22 17 12 3 44 21 72 40 57 37 68 41
60 19z m194 -217 c-1 -13 -6 -29 -12 -37 -8 -11 -8 -13 2 -7 6 4 12 3 12 -1 0
-5 -6 -15 -12 -22 -10 -11 -10 -13 0 -7 6 4 12 3 12 -1 0 -5 -6 -15 -12 -22
-7 -8 -8 -11 -2 -8 13 7 13 -242 0 -262 -6 -9 -5 -12 1 -8 6 4 10 -13 10 -43
1 -31 -3 -50 -11 -50 -6 0 -4 -5 4 -10 13 -9 13 -10 0 -10 -11 0 -12 -2 -2 -8
10 -7 9 -16 -2 -44 -16 -37 -79 -83 -98 -72 -7 4 -8 2 -4 -4 5 -9 -44 -45 -64
-47 -3 0 -20 -10 -37 -23 -18 -13 -33 -20 -33 -15 0 4 -4 3 -8 -3 -8 -11 -76
-54 -86 -54 -4 0 -4 6 0 13 4 7 3 9 -2 4 -5 -5 -9 -13 -9 -18 0 -5 -31 -27
-68 -49 -38 -22 -66 -34 -63 -27 3 6 9 20 12 30 4 9 11 17 16 17 5 0 7 4 4 8
-3 5 5 20 17 33 12 13 21 25 20 26 -5 6 12 39 26 50 9 7 12 13 8 13 -4 0 -3 9
3 21 10 17 14 18 28 7 15 -11 15 -11 5 3 -14 17 -7 31 86 196 24 43 58 103 74
133 17 30 33 57 36 60 3 3 14 22 23 42 13 28 22 36 35 32 14 -4 15 -4 4 4 -10
7 -11 14 -2 31 7 12 16 19 21 16 6 -3 7 1 4 9 -3 9 -1 16 6 16 6 0 9 4 5 9 -4
7 43 99 52 101 1 0 1 -10 1 -22z"/>
<path d="M2690 3819 c0 -5 5 -7 10 -4 6 3 10 8 10 11 0 2 -4 4 -10 4 -5 0 -10
-5 -10 -11z"/>
<path d="M2809 3797 c6 -8 7 -18 3 -22 -4 -5 -1 -5 6 -1 10 6 10 11 1 22 -6 8
-14 14 -16 14 -3 0 0 -6 6 -13z"/>
<path d="M2693 3785 c0 -8 4 -12 9 -9 5 3 6 10 3 15 -9 13 -12 11 -12 -6z"/>
<path d="M2610 3780 c0 -5 5 -10 11 -10 5 0 7 5 4 10 -3 6 -8 10 -11 10 -2 0
-4 -4 -4 -10z"/>
<path d="M2774 3756 c1 -8 5 -18 8 -22 4 -3 5 1 4 10 -1 8 -5 18 -8 22 -4 3
-5 -1 -4 -10z"/>
<path d="M2617 3675 c-4 -8 -3 -16 1 -19 4 -3 9 4 9 15 2 23 -3 25 -10 4z"/>
<path d="M2659 3688 c-5 -18 -6 -38 -1 -34 7 8 12 36 6 36 -2 0 -4 -1 -5 -2z"/>
<path d="M2716 3653 c-6 -14 -5 -15 5 -6 7 7 10 15 7 18 -3 3 -9 -2 -12 -12z"/>
<path d="M2760 3640 c-9 -6 -10 -10 -3 -10 6 0 15 5 18 10 8 12 4 12 -15 0z"/>
<path d="M3186 3518 c3 -5 10 -6 15 -3 13 9 11 12 -6 12 -8 0 -12 -4 -9 -9z"/>
<path d="M3195 3471 c-3 -5 -2 -12 3 -15 5 -3 9 1 9 9 0 17 -3 19 -12 6z"/>
<path d="M3230 3326 c0 -2 7 -7 16 -10 8 -3 12 -2 9 4 -6 10 -25 14 -25 6z"/>
<path d="M3275 3240 c3 -5 8 -10 11 -10 2 0 4 5 4 10 0 6 -5 10 -11 10 -5 0
-7 -4 -4 -10z"/>
<path d="M2617 3195 c-4 -8 -3 -16 1 -19 4 -3 9 4 9 15 2 23 -3 25 -10 4z"/>
<path d="M2699 3208 c-5 -18 -6 -38 -1 -34 7 8 12 36 6 36 -2 0 -4 -1 -5 -2z"/>
<path d="M2693 3129 c-2 -23 3 -25 10 -4 4 8 3 16 -1 19 -4 3 -9 -4 -9 -15z"/>
<path d="M2615 3100 c3 -5 8 -10 11 -10 2 0 4 5 4 10 0 6 -5 10 -11 10 -5 0
-7 -4 -4 -10z"/>
<path d="M3154 2926 c1 -8 5 -18 8 -22 4 -3 5 1 4 10 -1 8 -5 18 -8 22 -4 3
-5 -1 -4 -10z"/>
<path d="M3334 2656 c1 -8 5 -18 8 -22 4 -3 5 1 4 10 -1 8 -5 18 -8 22 -4 3
-5 -1 -4 -10z"/>
<path d="M4013 3663 c4 -3 1 -13 -6 -22 -11 -14 -10 -14 5 -2 16 12 16 31 1
31 -4 0 -3 -3 0 -7z"/>
<path d="M3940 3640 c-9 -6 -10 -10 -3 -10 6 0 15 5 18 10 8 12 4 12 -15 0z"/>
<path d="M3895 3591 c-3 -5 -2 -12 3 -15 5 -3 9 1 9 9 0 17 -3 19 -12 6z"/>
<path d="M4014 3582 c4 -3 14 -7 22 -8 9 -1 13 0 10 4 -4 3 -14 7 -22 8 -9 1
-13 0 -10 -4z"/>
<path d="M3699 3508 c-5 -18 -6 -38 -1 -34 7 8 12 36 6 36 -2 0 -4 -1 -5 -2z"/>
<path d="M3866 3485 c-11 -8 -15 -15 -9 -15 6 0 16 7 23 15 16 19 11 19 -14 0z"/>
<path d="M3740 3480 c-9 -6 -10 -10 -3 -10 6 0 15 5 18 10 8 12 4 12 -15 0z"/>
<path d="M3910 3481 c0 -6 4 -13 10 -16 6 -3 7 1 4 9 -7 18 -14 21 -14 7z"/>
<path d="M3673 3445 c0 -8 4 -12 9 -9 5 3 6 10 3 15 -9 13 -12 11 -12 -6z"/>
<path d="M3775 3440 c-3 -5 -1 -10 4 -10 6 0 11 5 11 10 0 6 -2 10 -4 10 -3 0
-8 -4 -11 -10z"/>
<path d="M3910 3416 c0 -2 8 -10 18 -17 15 -13 16 -12 3 4 -13 16 -21 21 -21
13z"/>
<path d="M3830 3221 c0 -6 4 -13 10 -16 6 -3 7 1 4 9 -7 18 -14 21 -14 7z"/>
<path d="M3730 3200 c0 -5 5 -10 11 -10 5 0 7 5 4 10 -3 6 -8 10 -11 10 -2 0
-4 -4 -4 -10z"/>
<path d="M3650 3119 c0 -5 5 -7 10 -4 6 3 10 8 10 11 0 2 -4 4 -10 4 -5 0 -10
-5 -10 -11z"/>
<path d="M3715 3020 c3 -5 8 -10 11 -10 2 0 4 5 4 10 0 6 -5 10 -11 10 -5 0
-7 -4 -4 -10z"/>
<path d="M3646 2982 c-3 -5 1 -9 9 -9 8 0 12 4 9 9 -3 4 -7 8 -9 8 -2 0 -6 -4
-9 -8z"/>
<path d="M3650 2899 c0 -5 5 -7 10 -4 6 3 10 8 10 11 0 2 -4 4 -10 4 -5 0 -10
-5 -10 -11z"/>
<path d="M4290 3380 c0 -5 5 -10 11 -10 5 0 7 5 4 10 -3 6 -8 10 -11 10 -2 0
-4 -4 -4 -10z"/>
<path d="M4295 3340 c3 -5 8 -10 11 -10 2 0 4 5 4 10 0 6 -5 10 -11 10 -5 0
-7 -4 -4 -10z"/>
<path d="M4330 3339 c0 -5 5 -7 10 -4 6 3 10 8 10 11 0 2 -4 4 -10 4 -5 0 -10
-5 -10 -11z"/>
<path d="M4370 3339 c0 -5 5 -7 10 -4 6 3 10 8 10 11 0 2 -4 4 -10 4 -5 0 -10
-5 -10 -11z"/>
<path d="M4320 3260 c-12 -7 -10 -9 7 -7 12 0 19 5 17 9 -6 10 -6 10 -24 -2z"/>
<path d="M4214 3236 c1 -8 5 -18 8 -22 4 -3 5 1 4 10 -1 8 -5 18 -8 22 -4 3
-5 -1 -4 -10z"/>
<path d="M4299 3228 c-5 -18 -6 -38 -1 -34 7 8 12 36 6 36 -2 0 -4 -1 -5 -2z"/>
<path d="M4219 3188 c-4 -12 -5 -57 0 -53 6 6 10 55 4 55 -1 0 -3 -1 -4 -2z"/>
<path d="M4355 3179 c-3 -4 2 -6 10 -5 21 3 28 13 10 13 -9 0 -18 -4 -20 -8z"/>
<path d="M4329 3157 c6 -8 7 -18 3 -22 -4 -5 -1 -5 6 -1 10 6 10 11 1 22 -6 8
-14 14 -16 14 -3 0 0 -6 6 -13z"/>
<path d="M4295 3111 c-3 -5 -2 -12 3 -15 5 -3 9 1 9 9 0 17 -3 19 -12 6z"/>
<path d="M4174 3102 c4 -3 14 -7 22 -8 9 -1 13 0 10 4 -4 3 -14 7 -22 8 -9 1
-13 0 -10 -4z"/>
<path d="M4334 3096 c1 -8 5 -18 8 -22 4 -3 5 1 4 10 -1 8 -5 18 -8 22 -4 3
-5 -1 -4 -10z"/>
<path d="M4175 3059 c-3 -4 2 -6 10 -5 21 3 28 13 10 13 -9 0 -18 -4 -20 -8z"/>
<path d="M4294 3056 c1 -8 5 -18 8 -22 4 -3 5 1 4 10 -1 8 -5 18 -8 22 -4 3
-5 -1 -4 -10z"/>
<path d="M4094 3000 c0 -16 3 -27 6 -25 8 5 6 42 -1 50 -3 2 -5 -8 -5 -25z"/>
<path d="M4235 3019 c-3 -4 2 -6 10 -5 21 3 28 13 10 13 -9 0 -18 -4 -20 -8z"/>
<path d="M4126 2982 c-3 -5 1 -9 9 -9 8 0 12 4 9 9 -3 4 -7 8 -9 8 -2 0 -6 -4
-9 -8z"/>
<path d="M4175 2979 c-3 -4 2 -6 10 -5 21 3 28 13 10 13 -9 0 -18 -4 -20 -8z"/>
<path d="M4050 2939 c0 -5 5 -7 10 -4 6 3 10 8 10 11 0 2 -4 4 -10 4 -5 0 -10
-5 -10 -11z"/>
<path d="M4015 2900 c-3 -5 -1 -10 4 -10 6 0 11 5 11 10 0 6 -2 10 -4 10 -3 0
-8 -4 -11 -10z"/>
<path d="M4055 2900 c-3 -5 -1 -10 4 -10 6 0 11 5 11 10 0 6 -2 10 -4 10 -3 0
-8 -4 -11 -10z"/>
<path d="M3116 4407 c3 -10 9 -15 12 -12 3 3 0 11 -7 18 -10 9 -11 8 -5 -6z"/>
<path d="M3987 4399 c7 -7 15 -10 18 -7 3 3 -2 9 -12 12 -14 6 -15 5 -6 -5z"/>
<path d="M3915 4280 c-3 -5 -1 -10 4 -10 6 0 11 5 11 10 0 6 -2 10 -4 10 -3 0
-8 -4 -11 -10z"/>
<path d="M4066 4202 c-3 -5 1 -9 9 -9 8 0 12 4 9 9 -3 4 -7 8 -9 8 -2 0 -6 -4
-9 -8z"/>
<path d="M4673 4165 c0 -8 4 -12 9 -9 5 3 6 10 3 15 -9 13 -12 11 -12 -6z"/>
<path d="M3186 4122 c-2 -4 4 -8 14 -8 10 0 16 4 14 8 -3 4 -9 8 -14 8 -5 0
-11 -4 -14 -8z"/>
<path d="M1468 4103 c-7 -13 -1 -1486 5 -1519 19 -93 68 -186 131 -248 50 -49
41 -44 601 -368 966 -558 912 -525 918 -557 19 -93 102 -200 194 -248 232
-124 508 8 564 268 30 140 -38 308 -158 391 -103 70 -228 88 -346 49 -34 -12
-86 -39 -115 -61 l-53 -40 -222 129 c-364 211 -400 232 -457 264 -30 16 -66
38 -80 47 -14 9 -32 20 -40 23 -8 3 -141 80 -295 169 -246 144 -282 168 -302
203 l-22 39 0 716 c0 393 0 721 -1 729 0 9 -8 11 -27 6 -67 -17 -203 -12 -275
11 -9 2 -18 1 -20 -3z"/>
<path d="M4686 3978 c3 -5 10 -6 15 -3 13 9 11 12 -6 12 -8 0 -12 -4 -9 -9z"/>
<path d="M3356 3962 c-3 -5 1 -9 9 -9 8 0 12 4 9 9 -3 4 -7 8 -9 8 -2 0 -6 -4
-9 -8z"/>
<path d="M4695 3951 c-3 -5 -2 -12 3 -15 5 -3 9 1 9 9 0 17 -3 19 -12 6z"/>
<path d="M3590 3856 c0 -2 8 -10 18 -17 15 -13 16 -12 3 4 -13 16 -21 21 -21
13z"/>
<path d="M4766 3838 c3 -5 10 -6 15 -3 13 9 11 12 -6 12 -8 0 -12 -4 -9 -9z"/>
<path d="M4875 3840 c-3 -5 -1 -10 4 -10 6 0 11 5 11 10 0 6 -2 10 -4 10 -3 0
-8 -4 -11 -10z"/>
<path d="M4695 3820 c-3 -5 -1 -10 4 -10 6 0 11 5 11 10 0 6 -2 10 -4 10 -3 0
-8 -4 -11 -10z"/>
<path d="M4733 3749 c-2 -23 3 -25 10 -4 4 8 3 16 -1 19 -4 3 -9 -4 -9 -15z"/>
<path d="M4955 3709 c-4 -6 -5 -12 -2 -15 2 -3 7 2 10 11 7 17 1 20 -8 4z"/>
<path d="M4760 3680 c-9 -6 -10 -10 -3 -10 6 0 15 5 18 10 8 12 4 12 -15 0z"/>
<path d="M4700 3646 c0 -2 8 -10 18 -17 15 -13 16 -12 3 4 -13 16 -21 21 -21
13z"/>
<path d="M4735 3579 c-3 -4 2 -6 10 -5 21 3 28 13 10 13 -9 0 -18 -4 -20 -8z"/>
<path d="M4720 3540 c-12 -7 -10 -9 7 -7 12 0 19 5 17 9 -6 10 -6 10 -24 -2z"/>
<path d="M4696 3418 c3 -5 10 -6 15 -3 13 9 11 12 -6 12 -8 0 -12 -4 -9 -9z"/>
<path d="M2266 3358 c3 -5 10 -6 15 -3 13 9 11 12 -6 12 -8 0 -12 -4 -9 -9z"/>
<path d="M4694 3316 c1 -8 5 -18 8 -22 4 -3 5 1 4 10 -1 8 -5 18 -8 22 -4 3
-5 -1 -4 -10z"/>
<path d="M4780 3246 c0 -2 8 -10 18 -17 15 -13 16 -12 3 4 -13 16 -21 21 -21
13z"/>
<path d="M4746 3162 c-2 -4 4 -8 14 -8 10 0 16 4 14 8 -3 4 -9 8 -14 8 -5 0
-11 -4 -14 -8z"/>
<path d="M4439 2713 c-13 -17 -13 -17 6 -3 11 8 22 16 24 17 2 2 0 3 -6 3 -6
0 -17 -8 -24 -17z"/>
<path d="M4355 2661 c-3 -5 -2 -12 3 -15 5 -3 9 1 9 9 0 17 -3 19 -12 6z"/>
<path d="M4475 2601 c-3 -5 -2 -12 3 -15 5 -3 9 1 9 9 0 17 -3 19 -12 6z"/>
<path d="M4179 2568 c-5 -18 -6 -38 -1 -34 7 8 12 36 6 36 -2 0 -4 -1 -5 -2z"/>
<path d="M2546 2522 c-3 -5 1 -9 9 -9 8 0 12 4 9 9 -3 4 -7 8 -9 8 -2 0 -6 -4
-9 -8z"/>
<path d="M2876 2518 c3 -5 10 -6 15 -3 13 9 11 12 -6 12 -8 0 -12 -4 -9 -9z"/>
<path d="M4070 2521 c0 -6 4 -13 10 -16 6 -3 7 1 4 9 -7 18 -14 21 -14 7z"/>
<path d="M4076 2467 c3 -10 9 -15 12 -12 3 3 0 11 -7 18 -10 9 -11 8 -5 -6z"/>
<path d="M4010 2459 c0 -5 5 -7 10 -4 6 3 10 8 10 11 0 2 -4 4 -10 4 -5 0 -10
-5 -10 -11z"/>
<path d="M4015 2431 c-3 -5 -2 -12 3 -15 5 -3 9 1 9 9 0 17 -3 19 -12 6z"/>
<path d="M3916 2393 c-6 -14 -5 -15 5 -6 7 7 10 15 7 18 -3 3 -9 -2 -12 -12z"/>
<path d="M3950 2406 c0 -2 7 -7 16 -10 8 -3 12 -2 9 4 -6 10 -25 14 -25 6z"/>
<path d="M3830 2357 c0 -2 6 -10 14 -16 11 -9 16 -9 22 1 4 7 4 10 -1 6 -4 -4
-14 -3 -22 3 -7 6 -13 9 -13 6z"/>
<path d="M3720 2300 c-12 -7 -10 -9 7 -7 12 0 19 5 17 9 -6 10 -6 10 -24 -2z"/>
<path d="M3819 2308 c-5 -18 -6 -38 -1 -34 7 8 12 36 6 36 -2 0 -4 -1 -5 -2z"/>
<path d="M3070 2280 c0 -5 5 -10 11 -10 5 0 7 5 4 10 -3 6 -8 10 -11 10 -2 0
-4 -4 -4 -10z"/>
<path d="M3680 2260 c-12 -7 -10 -9 7 -7 12 0 19 5 17 9 -6 10 -6 10 -24 -2z"/>
<path d="M3493 2215 c0 -8 4 -12 9 -9 5 3 6 10 3 15 -9 13 -12 11 -12 -6z"/>
<path d="M3270 2136 c0 -2 8 -10 18 -17 15 -13 16 -12 3 4 -13 16 -21 21 -21
13z"/>
</g>
</svg>
