<svg width="150" height="90" viewBox="0 0 150 90" fill="none" xmlns="http://www.w3.org/2000/svg">
<path d="M15 25.675C15.7279 25.675 16.4195 25.8306 17.0433 26.1103L36.1439 15.125C37.0439 14.625 38.1439 14.325 39.1439 14.325C40.2439 14.325 41.2439 14.625 42.1439 15.125L58.5439 24.625C57.3439 25.425 56.4439 26.6249 55.8439 28.0249L39.9438 18.825C39.6439 18.625 39.344 18.625 39.0441 18.625C38.7441 18.625 38.4439 18.725 38.1439 18.825L19.8225 29.35C19.9382 29.772 20 30.2163 20 30.675C20 33.4365 17.7614 35.675 15 35.675C12.2386 35.675 10 33.4365 10 30.675C10 27.9136 12.2386 25.675 15 25.675Z" fill="url(#paint0_linear)"/>
<path d="M61.3492 25.954C61.866 25.7733 62.4215 25.675 63 25.675C65.7614 25.675 68 27.9136 68 30.675C68 32.5076 67.0142 34.1099 65.5439 34.9805V55.5249C65.5439 57.7249 64.3439 59.725 62.5439 60.825L46.1439 70.225C46.1439 68.725 45.6438 67.225 44.7438 66.125L60.3439 57.125C60.9439 56.825 61.2438 56.2249 61.2438 55.5249V35.3579C59.5846 34.7354 58.3442 33.2564 58.0611 31.4593C57.9844 31.1284 57.9438 30.7825 57.9438 30.4249C57.9438 29.4249 58.2439 28.525 58.8439 27.725C58.8939 27.675 58.9439 27.6 58.9939 27.525C59.0439 27.45 59.0939 27.375 59.1439 27.325C59.4439 27.025 59.6438 26.825 59.9438 26.625C59.9438 26.625 60.0439 26.6249 60.0439 26.5249C60.1057 26.4631 60.1675 26.4395 60.2528 26.4069C60.3056 26.3868 60.3674 26.3632 60.4438 26.325C60.4438 26.325 60.5439 26.325 60.5439 26.225C60.6439 26.175 60.7189 26.15 60.7939 26.1249C60.8689 26.0999 60.9439 26.0749 61.0439 26.0249C61.1403 26.0008 61.2425 25.9767 61.3492 25.954Z" fill="url(#paint1_linear)"/>
<path d="M43.8439 69.4305C43.9458 69.8284 44 70.2454 44 70.675C44 73.4365 41.7614 75.675 39 75.675C36.5102 75.675 34.4454 73.8552 34.0633 71.473L15.8439 60.9249C13.9439 59.8249 12.8439 57.825 12.8439 55.625V37.125C13.5439 37.325 14.3439 37.5249 15.0439 37.5249C15.7439 37.5249 16.4439 37.425 17.0439 37.225V55.625C17.0439 56.325 17.4438 56.925 17.9438 57.225L35.3263 67.2833C36.2398 66.2943 37.5476 65.675 39 65.675C41.3291 65.675 43.2862 67.2675 43.8419 69.423L43.8436 69.4247L43.8439 69.4305Z" fill="url(#paint2_linear)"/>
<g opacity="0.3" filter="url(#filter0_f)">
<path d="M48.3334 30.0789C49.0494 29.3746 49.0494 28.2326 48.3334 27.5283C47.6174 26.8239 46.4566 26.8239 45.7407 27.5283L39.7546 33.4172L37.7408 31.4361C37.0248 30.7317 35.864 30.7317 35.1481 31.4361C35.1033 31.4801 35.0614 31.5258 35.0222 31.5731C34.6149 32.0643 34.5103 32.7174 34.7082 33.2919C34.7957 33.5458 34.9423 33.7844 35.1481 33.9868L38.4583 37.2433C39.1742 37.9476 40.335 37.9476 41.051 37.2433L48.3334 30.0789Z" fill="url(#paint3_linear)"/>
<path d="M36.9576 27.8727C38.5082 26.9938 40.412 26.9809 41.9729 27.834L39.7546 30.0163L39.4693 29.7356C38.4523 28.7351 37.0507 28.3437 35.7327 28.5613L36.9576 27.8727Z" fill="url(#paint4_linear)"/>
<path fill-rule="evenodd" clip-rule="evenodd" d="M25.5534 34.2838L33.1716 30.0011C32.078 31.2762 31.877 33.04 32.5685 34.4948L28.5648 36.7455L39.5 42.9685L50.4352 36.7454L46.9853 34.8061L49.6727 32.1622L53.4537 34.2878C54.086 34.6469 54.6208 35.1282 55.0347 35.6916C55.1404 35.7976 55.2345 35.9183 55.3136 36.0528C55.3814 36.1681 55.4347 36.2876 55.4742 36.4094C55.8138 37.0863 55.9992 37.8409 56 38.6214L56 38.6233L56 51.4508C55.9981 53.2389 55.0277 54.8904 53.4537 55.7845L53.4466 55.7885L42.0463 62.1973L42.0424 62.1995C41.5075 62.5027 40.9305 62.7028 40.3401 62.7999C40.0884 62.9278 39.8028 63 39.5 63C39.1972 63 38.9116 62.9278 38.6599 62.7999C38.0695 62.7028 37.4925 62.5027 36.9576 62.1995L36.9537 62.1973L25.5534 55.7885L25.5463 55.7845C23.9723 54.8904 23.0019 53.2389 23 51.4508V38.6214C23.0008 37.8409 23.1862 37.0864 23.5257 36.4096C23.5652 36.2877 23.6186 36.1681 23.6864 36.0528C23.7655 35.9183 23.8596 35.7975 23.9654 35.6914C24.3792 35.1282 24.9141 34.6469 25.5463 34.2878L25.5534 34.2838ZM45.2667 56.2323L51.6204 52.6605L51.6232 52.6589C52.0618 52.4084 52.3323 51.9476 52.3333 51.4486L52.3333 51.4471V44.191L45.2667 56.2323ZM41.3333 55.7202V46.0924L49.8168 41.2646L41.3333 55.7202ZM37.6667 46.0925V58.4435L27.3796 52.6605L27.3768 52.6589C26.9379 52.4083 26.6675 51.9471 26.6667 51.4479V48.3459L31.7734 51.2465C32.6503 51.7445 33.7715 51.4489 34.2778 50.5863C34.7841 49.7236 34.4836 48.6206 33.6068 48.1225L26.6667 44.1806V39.8325L37.6667 46.0925Z" fill="url(#paint5_linear)"/>
</g>
<path d="M47.0304 29.9079C47.6812 29.2427 47.6812 28.1641 47.0304 27.4989C46.3795 26.8337 45.3242 26.8337 44.6733 27.4989L39.2315 33.0607L37.4007 31.1896C36.7499 30.5244 35.6946 30.5244 35.0437 31.1896C35.003 31.2312 34.9649 31.2744 34.9293 31.319C34.559 31.783 34.4639 32.3998 34.6438 32.9423C34.7234 33.1821 34.8567 33.4074 35.0437 33.5986L38.053 36.6742C38.7038 37.3394 39.7591 37.3394 40.41 36.6742L47.0304 29.9079Z" fill="url(#paint6_linear)"/>
<path fill-rule="evenodd" clip-rule="evenodd" d="M26.3212 33.8791L33.2469 29.8343C32.2528 31.0386 32.07 32.7044 32.6986 34.0784L29.0589 36.204L39 42.0814L48.9411 36.204L45.8049 34.3724L48.2479 31.8754L51.6852 33.8829C52.26 34.222 52.7462 34.6767 53.1224 35.2087C53.2186 35.3088 53.3041 35.4228 53.376 35.5499C53.4376 35.6587 53.4861 35.7716 53.522 35.8867C53.8307 36.526 53.9993 37.2386 54 37.9758L54 37.9775L54 50.0924C53.9983 51.7811 53.1161 53.3409 51.6852 54.1853L51.6788 54.1891L41.3148 60.2419L41.3113 60.2439C40.825 60.5303 40.3005 60.7193 39.7637 60.811C39.5349 60.9318 39.2753 61 39 61C38.7247 61 38.4651 60.9318 38.2363 60.811C37.6995 60.7193 37.175 60.5303 36.6887 60.2439L36.6852 60.2419L26.3212 54.1891L26.3148 54.1853C24.8839 53.3409 24.0017 51.7811 24 50.0924V37.9758C24.0007 37.2387 24.1692 36.5261 24.4779 35.8868C24.5138 35.7717 24.5624 35.6588 24.624 35.5499C24.6959 35.4228 24.7815 35.3087 24.8777 35.2086C25.2539 34.6766 25.7401 34.222 26.3148 33.8829L26.3212 33.8791ZM44.2425 54.6083L50.0185 51.2349L50.0211 51.2334C50.4199 50.9968 50.6657 50.5616 50.6667 50.0903L50.6667 50.0889V43.236L44.2425 54.6083ZM40.6667 54.1247V45.0318L48.3789 40.4721L40.6667 54.1247ZM37.3333 45.0318V56.6966L27.9815 51.2349L27.9789 51.2334C27.58 50.9967 27.3341 50.5612 27.3333 50.0896V47.16L31.9758 49.8994C32.773 50.3698 33.7923 50.0907 34.2525 49.2759C34.7128 48.4612 34.4397 47.4194 33.6425 46.949L27.3333 43.2261V39.1196L37.3333 45.0318Z" fill="url(#paint7_linear)"/>
<path d="M81 46.9099H95.376V42.2779H85.8V39.8779H93.672V35.5339H85.8V32.8459H95.376V28.1899H81V46.9099Z" fill="#0B0D11"/>
<path d="M98.0107 32.8459H106.435L97.7227 43.4059V46.9099H113.611V42.2779H104.851L113.587 31.6939V28.1899H98.0107V32.8459Z" fill="#0B0D11"/>
<path fill-rule="evenodd" clip-rule="evenodd" d="M129.3 51.9099C131.6 51.9099 133.4 53.7099 133.4 55.9099C133.4 57.4099 132.6 58.6099 131.4 59.4099C131.483 59.4517 131.563 59.4934 131.638 59.5334C131.925 59.6847 132.163 59.8099 132.4 59.8099H132.4C132.5 59.8099 132.9 59.8099 133.1 59.51L134.6 60.71C134 61.51 133.1 61.8099 132.4 61.8099C131.446 61.8099 130.741 61.3122 130.051 60.8254C129.584 60.4959 129.125 60.1715 128.6 60.01C126.7 59.71 125.2 58.01 125.2 56.01C125.2 53.71 127 51.9099 129.3 51.9099ZM129.3 58.01C130.5 58.01 131.4 57.1099 131.4 55.9099C131.4 54.7099 130.5 53.8099 129.3 53.8099C128.1 53.8099 127.2 54.7099 127.2 55.9099C127.2 57.1099 128.1 58.01 129.3 58.01ZM85 55.3099H88.7V59.8099H87.1V59.11C86.7 59.71 85.9 60.01 85.1 60.01C82.9 60.01 81 58.21 81 56.01C81 53.81 82.9 52.01 85.1 52.01C86.4 52.01 87.6 52.61 88.4 53.61L86.8 54.71C86.4 54.21 85.8 53.9099 85.1 53.9099C83.9 53.9099 83 54.81 83 56.01C83 57.21 83.9 58.11 85.1 58.11C85.8 58.11 86.4 57.81 86.8 57.21V57.01H85V55.3099ZM94.4001 52.1101C96.4001 52.1101 97.3001 53.41 97.3001 54.91C97.3001 56.01 96.8001 57.0101 95.8001 57.5101L97.5001 59.8101H95.1001L93.6001 57.7101H92.6001V59.8101H90.6001V52.1101H94.4001ZM92.6001 54.0101V56.0101H94.3001C95.1001 56.0101 95.4001 55.5101 95.4001 55.0101C95.4001 54.4101 95.1001 54.0101 94.3001 54.0101H92.6001ZM106.7 59.8101L103.6 52.1101H101.6L98.5 59.8101H100.7L101.1 58.7101H104.1L104.5 59.8101H106.7ZM101.7 56.91L102.6 54.6101L103.4 56.91H101.7ZM108.2 52.1101H111.6C113.7 52.1101 114.6 53.5101 114.6 55.1101C114.6 56.7101 113.6 58.1101 111.6 58.1101H110.2V59.91H108.2V52.1101ZM110.2 53.91V56.3101H111.5C112.3 56.3101 112.6 55.8101 112.6 55.1101C112.6 54.5101 112.3 53.91 111.5 53.91H110.2ZM123.5 59.8101V52.1101H121.5V55.1101H118.3V52.1101H116.3V59.8101H118.3V56.91H121.5V59.8101H123.5ZM137.1 52.1101H135.1V59.8101H140.8V57.91H137.1V52.1101Z" fill="#7F818C"/>
<defs>
<filter id="filter0_f" x="17" y="21" width="45" height="48" filterUnits="userSpaceOnUse" color-interpolation-filters="sRGB">
<feFlood flood-opacity="0" result="BackgroundImageFix"/>
<feBlend mode="normal" in="SourceGraphic" in2="BackgroundImageFix" result="shape"/>
<feGaussianBlur stdDeviation="3" result="effect1_foregroundBlur"/>
</filter>
<linearGradient id="paint0_linear" x1="3.4646" y1="12.152" x2="95.5015" y2="99.6715" gradientUnits="userSpaceOnUse">
<stop stop-color="#47DEFF"/>
<stop offset="1" stop-color="#77FF47"/>
</linearGradient>
<linearGradient id="paint1_linear" x1="3.4646" y1="12.152" x2="95.5015" y2="99.6715" gradientUnits="userSpaceOnUse">
<stop stop-color="#47DEFF"/>
<stop offset="1" stop-color="#77FF47"/>
</linearGradient>
<linearGradient id="paint2_linear" x1="3.4646" y1="12.152" x2="95.5015" y2="99.6715" gradientUnits="userSpaceOnUse">
<stop stop-color="#47DEFF"/>
<stop offset="1" stop-color="#77FF47"/>
</linearGradient>
<linearGradient id="paint3_linear" x1="33.0044" y1="26.6185" x2="56.2381" y2="72.5079" gradientUnits="userSpaceOnUse">
<stop stop-color="#47DEFF"/>
<stop offset="1" stop-color="#77FF47"/>
</linearGradient>
<linearGradient id="paint4_linear" x1="33.0044" y1="26.6185" x2="56.2381" y2="72.5079" gradientUnits="userSpaceOnUse">
<stop stop-color="#47DEFF"/>
<stop offset="1" stop-color="#77FF47"/>
</linearGradient>
<linearGradient id="paint5_linear" x1="33.0044" y1="26.6185" x2="56.2381" y2="72.5079" gradientUnits="userSpaceOnUse">
<stop stop-color="#47DEFF"/>
<stop offset="1" stop-color="#77FF47"/>
</linearGradient>
<linearGradient id="paint6_linear" x1="33.0949" y1="26.6397" x2="55.5282" y2="69.2897" gradientUnits="userSpaceOnUse">
<stop stop-color="#47DEFF"/>
<stop offset="1" stop-color="#77FF47"/>
</linearGradient>
<linearGradient id="paint7_linear" x1="33.0949" y1="26.6397" x2="55.5282" y2="69.2897" gradientUnits="userSpaceOnUse">
<stop stop-color="#47DEFF"/>
<stop offset="1" stop-color="#77FF47"/>
</linearGradient>
</defs>
</svg>
