<svg width="90" height="90" viewBox="0 0 90 90" fill="none" xmlns="http://www.w3.org/2000/svg">
<path d="M21 25.675C21.7279 25.675 22.4195 25.8306 23.0433 26.1103L42.1439 15.125C43.0439 14.625 44.1439 14.325 45.1439 14.325C46.2439 14.325 47.2439 14.625 48.1439 15.125L64.5439 24.625C63.3439 25.425 62.4439 26.6249 61.8439 28.0249L45.9438 18.825C45.6439 18.625 45.344 18.625 45.0441 18.625C44.7441 18.625 44.4439 18.725 44.1439 18.825L25.8225 29.35C25.9382 29.772 26 30.2163 26 30.675C26 33.4365 23.7614 35.675 21 35.675C18.2386 35.675 16 33.4365 16 30.675C16 27.9136 18.2386 25.675 21 25.675Z" fill="url(#paint0_linear)"/>
<path d="M67.3492 25.954C67.866 25.7733 68.4215 25.675 69 25.675C71.7614 25.675 74 27.9136 74 30.675C74 32.5076 73.0142 34.1099 71.5439 34.9805V55.5249C71.5439 57.7249 70.3439 59.725 68.5439 60.825L52.1439 70.225C52.1439 68.725 51.6438 67.225 50.7438 66.125L66.3439 57.125C66.9439 56.825 67.2438 56.2249 67.2438 55.5249V35.3579C65.5846 34.7354 64.3442 33.2564 64.0611 31.4593C63.9844 31.1284 63.9438 30.7825 63.9438 30.4249C63.9438 29.4249 64.2439 28.525 64.8439 27.725C64.8939 27.675 64.9439 27.6 64.9939 27.525C65.0439 27.45 65.0939 27.375 65.1439 27.325C65.4439 27.025 65.6438 26.825 65.9438 26.625C65.9438 26.625 66.0439 26.6249 66.0439 26.5249C66.1057 26.4631 66.1675 26.4395 66.2528 26.4069C66.3056 26.3868 66.3674 26.3632 66.4438 26.325C66.4438 26.325 66.5439 26.325 66.5439 26.225C66.6439 26.175 66.7189 26.15 66.7939 26.1249C66.8689 26.0999 66.9439 26.0749 67.0439 26.0249C67.1403 26.0008 67.2425 25.9767 67.3492 25.954Z" fill="url(#paint1_linear)"/>
<path d="M49.8439 69.4305C49.9458 69.8284 50 70.2454 50 70.675C50 73.4365 47.7614 75.675 45 75.675C42.5102 75.675 40.4454 73.8552 40.0633 71.473L21.8439 60.9249C19.9439 59.8249 18.8439 57.825 18.8439 55.625V37.125C19.5439 37.325 20.3439 37.5249 21.0439 37.5249C21.7439 37.5249 22.4439 37.425 23.0439 37.225V55.625C23.0439 56.325 23.4438 56.925 23.9438 57.225L41.3263 67.2833C42.2398 66.2943 43.5476 65.675 45 65.675C47.3291 65.675 49.2862 67.2675 49.8419 69.423L49.8436 69.4247L49.8439 69.4305Z" fill="url(#paint2_linear)"/>
<g opacity="0.3" filter="url(#filter0_f)">
<path d="M54.3334 30.0789C55.0494 29.3746 55.0494 28.2326 54.3334 27.5283C53.6174 26.8239 52.4566 26.8239 51.7407 27.5283L45.7546 33.4172L43.7408 31.4361C43.0248 30.7317 41.864 30.7317 41.1481 31.4361C41.1033 31.4801 41.0614 31.5258 41.0222 31.5731C40.6149 32.0643 40.5103 32.7174 40.7082 33.2919C40.7957 33.5458 40.9423 33.7844 41.1481 33.9868L44.4583 37.2433C45.1742 37.9476 46.335 37.9476 47.051 37.2433L54.3334 30.0789Z" fill="url(#paint3_linear)"/>
<path d="M42.9576 27.8727C44.5082 26.9938 46.412 26.9809 47.9729 27.834L45.7546 30.0163L45.4693 29.7356C44.4523 28.7351 43.0507 28.3437 41.7327 28.5613L42.9576 27.8727Z" fill="url(#paint4_linear)"/>
<path fill-rule="evenodd" clip-rule="evenodd" d="M31.5534 34.2838L39.1716 30.0011C38.078 31.2762 37.877 33.04 38.5685 34.4948L34.5648 36.7455L45.5 42.9685L56.4352 36.7454L52.9853 34.8061L55.6727 32.1622L59.4537 34.2878C60.086 34.6469 60.6208 35.1282 61.0347 35.6916C61.1404 35.7976 61.2345 35.9183 61.3136 36.0528C61.3814 36.1681 61.4347 36.2876 61.4742 36.4094C61.8138 37.0863 61.9992 37.8409 62 38.6214L62 38.6233L62 51.4508C61.9981 53.2389 61.0277 54.8904 59.4537 55.7845L59.4466 55.7885L48.0463 62.1973L48.0424 62.1995C47.5075 62.5027 46.9305 62.7028 46.3401 62.7999C46.0884 62.9278 45.8028 63 45.5 63C45.1972 63 44.9116 62.9278 44.6599 62.7999C44.0695 62.7028 43.4925 62.5027 42.9576 62.1995L42.9537 62.1973L31.5534 55.7885L31.5463 55.7845C29.9723 54.8904 29.0019 53.2389 29 51.4508V38.6214C29.0008 37.8409 29.1862 37.0864 29.5257 36.4096C29.5652 36.2877 29.6186 36.1681 29.6864 36.0528C29.7655 35.9183 29.8596 35.7975 29.9654 35.6914C30.3792 35.1282 30.9141 34.6469 31.5463 34.2878L31.5534 34.2838ZM51.2667 56.2323L57.6204 52.6605L57.6232 52.6589C58.0618 52.4084 58.3323 51.9476 58.3333 51.4486L58.3333 51.4471V44.191L51.2667 56.2323ZM47.3333 55.7202V46.0924L55.8168 41.2646L47.3333 55.7202ZM43.6667 46.0925V58.4435L33.3796 52.6605L33.3768 52.6589C32.9379 52.4083 32.6675 51.9471 32.6667 51.4479V48.3459L37.7734 51.2465C38.6503 51.7445 39.7715 51.4489 40.2778 50.5863C40.7841 49.7236 40.4836 48.6206 39.6068 48.1225L32.6667 44.1806V39.8325L43.6667 46.0925Z" fill="url(#paint5_linear)"/>
</g>
<path d="M53.0304 29.9079C53.6812 29.2427 53.6812 28.1641 53.0304 27.4989C52.3795 26.8337 51.3242 26.8337 50.6733 27.4989L45.2315 33.0607L43.4007 31.1896C42.7499 30.5244 41.6946 30.5244 41.0437 31.1896C41.003 31.2312 40.9649 31.2744 40.9293 31.319C40.559 31.783 40.4639 32.3998 40.6438 32.9423C40.7234 33.1821 40.8567 33.4074 41.0437 33.5986L44.053 36.6742C44.7038 37.3394 45.7591 37.3394 46.41 36.6742L53.0304 29.9079Z" fill="url(#paint6_linear)"/>
<path fill-rule="evenodd" clip-rule="evenodd" d="M32.3212 33.8791L39.2469 29.8343C38.2528 31.0386 38.07 32.7044 38.6986 34.0784L35.0589 36.204L45 42.0814L54.9411 36.204L51.8049 34.3724L54.2479 31.8754L57.6852 33.8829C58.26 34.222 58.7462 34.6767 59.1224 35.2087C59.2186 35.3088 59.3041 35.4228 59.376 35.5499C59.4376 35.6587 59.4861 35.7716 59.522 35.8867C59.8307 36.526 59.9993 37.2386 60 37.9758L60 37.9775L60 50.0924C59.9983 51.7811 59.1161 53.3409 57.6852 54.1853L57.6788 54.1891L47.3148 60.2419L47.3113 60.2439C46.825 60.5303 46.3005 60.7193 45.7637 60.811C45.5349 60.9318 45.2753 61 45 61C44.7247 61 44.4651 60.9318 44.2363 60.811C43.6995 60.7193 43.175 60.5303 42.6887 60.2439L42.6852 60.2419L32.3212 54.1891L32.3148 54.1853C30.8839 53.3409 30.0017 51.7811 30 50.0924V37.9758C30.0007 37.2387 30.1692 36.5261 30.4779 35.8868C30.5138 35.7717 30.5624 35.6588 30.624 35.5499C30.6959 35.4228 30.7815 35.3087 30.8777 35.2086C31.2539 34.6766 31.7401 34.222 32.3148 33.8829L32.3212 33.8791ZM50.2425 54.6083L56.0185 51.2349L56.0211 51.2334C56.4199 50.9968 56.6657 50.5616 56.6667 50.0903L56.6667 50.0889V43.236L50.2425 54.6083ZM46.6667 54.1247V45.0318L54.3789 40.4721L46.6667 54.1247ZM43.3333 45.0318V56.6966L33.9815 51.2349L33.9789 51.2334C33.58 50.9967 33.3341 50.5612 33.3333 50.0896V47.16L37.9758 49.8994C38.773 50.3698 39.7923 50.0907 40.2525 49.2759C40.7128 48.4612 40.4397 47.4194 39.6425 46.949L33.3333 43.2261V39.1196L43.3333 45.0318Z" fill="url(#paint7_linear)"/>
<defs>
<filter id="filter0_f" x="23" y="21" width="45" height="48" filterUnits="userSpaceOnUse" color-interpolation-filters="sRGB">
<feFlood flood-opacity="0" result="BackgroundImageFix"/>
<feBlend mode="normal" in="SourceGraphic" in2="BackgroundImageFix" result="shape"/>
<feGaussianBlur stdDeviation="3" result="effect1_foregroundBlur"/>
</filter>
<linearGradient id="paint0_linear" x1="9.4646" y1="12.152" x2="101.501" y2="99.6715" gradientUnits="userSpaceOnUse">
<stop stop-color="#47DEFF"/>
<stop offset="1" stop-color="#77FF47"/>
</linearGradient>
<linearGradient id="paint1_linear" x1="9.4646" y1="12.152" x2="101.501" y2="99.6715" gradientUnits="userSpaceOnUse">
<stop stop-color="#47DEFF"/>
<stop offset="1" stop-color="#77FF47"/>
</linearGradient>
<linearGradient id="paint2_linear" x1="9.4646" y1="12.152" x2="101.501" y2="99.6715" gradientUnits="userSpaceOnUse">
<stop stop-color="#47DEFF"/>
<stop offset="1" stop-color="#77FF47"/>
</linearGradient>
<linearGradient id="paint3_linear" x1="39.0044" y1="26.6185" x2="62.2381" y2="72.5079" gradientUnits="userSpaceOnUse">
<stop stop-color="#47DEFF"/>
<stop offset="1" stop-color="#77FF47"/>
</linearGradient>
<linearGradient id="paint4_linear" x1="39.0044" y1="26.6185" x2="62.2381" y2="72.5079" gradientUnits="userSpaceOnUse">
<stop stop-color="#47DEFF"/>
<stop offset="1" stop-color="#77FF47"/>
</linearGradient>
<linearGradient id="paint5_linear" x1="39.0044" y1="26.6185" x2="62.2381" y2="72.5079" gradientUnits="userSpaceOnUse">
<stop stop-color="#47DEFF"/>
<stop offset="1" stop-color="#77FF47"/>
</linearGradient>
<linearGradient id="paint6_linear" x1="39.0949" y1="26.6397" x2="61.5282" y2="69.2897" gradientUnits="userSpaceOnUse">
<stop stop-color="#47DEFF"/>
<stop offset="1" stop-color="#77FF47"/>
</linearGradient>
<linearGradient id="paint7_linear" x1="39.0949" y1="26.6397" x2="61.5282" y2="69.2897" gradientUnits="userSpaceOnUse">
<stop stop-color="#47DEFF"/>
<stop offset="1" stop-color="#77FF47"/>
</linearGradient>
</defs>
</svg>
