<svg width="150" height="150" viewBox="0 0 150 150" fill="none" xmlns="http://www.w3.org/2000/svg">
<rect width="150" height="150" fill="#0B0D11"/>
<path d="M51 32.365C51.7279 32.365 52.4195 32.5205 53.0433 32.8002L72.1439 21.8149C73.0439 21.3149 74.1439 21.0149 75.1439 21.0149C76.2439 21.0149 77.2439 21.3149 78.1439 21.8149L94.5439 31.3149C93.3439 32.1149 92.4439 33.3148 91.8439 34.7148L75.9438 25.5149C75.6439 25.3149 75.344 25.3149 75.0441 25.3149C74.7441 25.3149 74.4439 25.4149 74.1439 25.5149L55.8225 36.04C55.9382 36.462 56 36.9063 56 37.365C56 40.1264 53.7614 42.365 51 42.365C48.2386 42.365 46 40.1264 46 37.365C46 34.6036 48.2386 32.365 51 32.365Z" fill="url(#paint0_linear)"/>
<path d="M97.3492 32.6439C97.866 32.4632 98.4215 32.365 99 32.365C101.761 32.365 104 34.6036 104 37.365C104 39.1975 103.014 40.7998 101.544 41.6704V62.2148C101.544 64.4148 100.344 66.4149 98.5439 67.5149L82.1439 76.9149C82.1439 75.4149 81.6438 73.9149 80.7438 72.8149L96.3439 63.8149C96.9439 63.5149 97.2438 62.9148 97.2438 62.2148V42.0479C95.5846 41.4254 94.3442 39.9463 94.0611 38.1492C93.9844 37.8183 93.9438 37.4724 93.9438 37.1149C93.9438 36.1149 94.2439 35.2149 94.8439 34.4149C94.8939 34.3649 94.9439 34.2899 94.9939 34.2149C95.0439 34.1399 95.0939 34.0649 95.1439 34.0149C95.4439 33.7149 95.6438 33.5149 95.9438 33.3149C95.9438 33.3149 96.0439 33.3148 96.0439 33.2148C96.1057 33.153 96.1675 33.1295 96.2528 33.0969C96.3056 33.0767 96.3674 33.0531 96.4438 33.0149C96.4438 33.0149 96.5439 33.0149 96.5439 32.9149C96.6439 32.8649 96.7189 32.8399 96.7939 32.8149C96.8689 32.7899 96.9439 32.7648 97.0439 32.7148C97.1403 32.6907 97.2425 32.6666 97.3492 32.6439Z" fill="url(#paint1_linear)"/>
<path d="M79.8439 76.1204C79.9458 76.5183 80 76.9353 80 77.365C80 80.1264 77.7614 82.365 75 82.365C72.5102 82.365 70.4454 80.5451 70.0633 78.163L51.8439 67.6149C49.9439 66.5149 48.8439 64.5149 48.8439 62.3149V43.8149C49.5439 44.0149 50.3439 44.2148 51.0439 44.2148C51.7439 44.2148 52.4439 44.1149 53.0439 43.9149V62.3149C53.0439 63.0149 53.4438 63.6149 53.9438 63.9149L71.3263 73.9732C72.2398 72.9843 73.5476 72.365 75 72.365C77.3291 72.365 79.2862 73.9574 79.8419 76.1129L79.8436 76.1146L79.8439 76.1204Z" fill="url(#paint2_linear)"/>
<g opacity="0.3" filter="url(#filter0_f)">
<path d="M84.3334 36.7689C85.0494 36.0645 85.0494 34.9226 84.3334 34.2182C83.6174 33.5139 82.4566 33.5139 81.7407 34.2182L75.7546 40.1072L73.7408 38.126C73.0248 37.4217 71.864 37.4217 71.1481 38.126C71.1033 38.17 71.0614 38.2158 71.0222 38.263C70.6149 38.7543 70.5103 39.4074 70.7082 39.9818C70.7957 40.2357 70.9423 40.4743 71.1481 40.6767L74.4583 43.9332C75.1742 44.6376 76.335 44.6376 77.051 43.9332L84.3334 36.7689Z" fill="url(#paint3_linear)"/>
<path d="M72.9576 34.5627C74.5082 33.6838 76.412 33.6709 77.9729 34.524L75.7546 36.7063L75.4693 36.4256C74.4523 35.4251 73.0507 35.0336 71.7327 35.2513L72.9576 34.5627Z" fill="url(#paint4_linear)"/>
<path fill-rule="evenodd" clip-rule="evenodd" d="M61.5534 40.9737L69.1716 36.691C68.078 37.9661 67.877 39.7299 68.5685 41.1847L64.5648 43.4354L75.5 49.6585L86.4352 43.4354L82.9853 41.496L85.6727 38.8522L89.4537 40.9777C90.086 41.3368 90.6208 41.8182 91.0347 42.3815C91.1404 42.4875 91.2345 42.6082 91.3136 42.7428C91.3814 42.858 91.4347 42.9776 91.4742 43.0994C91.8138 43.7763 91.9992 44.5308 92 45.3114L92 45.3132L92 58.1407C91.9981 59.9288 91.0277 61.5804 89.4537 62.4744L89.4466 62.4784L78.0463 68.8872L78.0424 68.8894C77.5075 69.1926 76.9305 69.3928 76.3401 69.4899C76.0884 69.6177 75.8028 69.6899 75.5 69.6899C75.1972 69.6899 74.9116 69.6177 74.6599 69.4899C74.0695 69.3928 73.4925 69.1926 72.9576 68.8894L72.9537 68.8872L61.5534 62.4784L61.5463 62.4744C59.9723 61.5804 59.0019 59.9288 59 58.1407V45.3114C59.0008 44.5309 59.1862 43.7764 59.5257 43.0995C59.5652 42.9777 59.6186 42.8581 59.6864 42.7428C59.7655 42.6082 59.8596 42.4874 59.9654 42.3814C60.3792 41.8181 60.9141 41.3368 61.5463 40.9777L61.5534 40.9737ZM81.2667 62.9222L87.6204 59.3505L87.6232 59.3488C88.0618 59.0984 88.3323 58.6375 88.3333 58.1385L88.3333 58.137V50.881L81.2667 62.9222ZM77.3333 62.4102V52.7824L85.8168 47.9545L77.3333 62.4102ZM73.6667 52.7824V65.1334L63.3796 59.3505L63.3768 59.3488C62.9379 59.0982 62.6675 58.6371 62.6667 58.1378V55.0358L67.7734 57.9364C68.6503 58.4345 69.7715 58.1389 70.2778 57.2762C70.7841 56.4136 70.4836 55.3105 69.6068 54.8125L62.6667 50.8706V46.5225L73.6667 52.7824Z" fill="url(#paint5_linear)"/>
</g>
<path d="M83.0304 36.5978C83.6812 35.9326 83.6812 34.8541 83.0304 34.1889C82.3795 33.5236 81.3242 33.5236 80.6733 34.1889L75.2315 39.7507L73.4007 37.8796C72.7499 37.2144 71.6946 37.2144 71.0437 37.8796C71.003 37.9211 70.9649 37.9643 70.9293 38.0089C70.559 38.4729 70.4639 39.0897 70.6438 39.6323C70.7234 39.8721 70.8567 40.0974 71.0437 40.2886L74.053 43.3641C74.7038 44.0294 75.7591 44.0294 76.41 43.3641L83.0304 36.5978Z" fill="url(#paint6_linear)"/>
<path fill-rule="evenodd" clip-rule="evenodd" d="M62.3212 40.569L69.2469 36.5243C68.2528 37.7286 68.07 39.3943 68.6986 40.7683L65.0589 42.894L75 48.7713L84.9411 42.894L81.8049 41.0623L84.2479 38.5654L87.6852 40.5728C88.26 40.912 88.7462 41.3666 89.1224 41.8986C89.2186 41.9988 89.3041 42.1128 89.376 42.2398C89.4376 42.3487 89.4861 42.4616 89.522 42.5766C89.8307 43.2159 89.9993 43.9285 90 44.6657L90 44.6675L90 56.7824C89.9983 58.4711 89.1161 60.0309 87.6852 60.8753L87.6788 60.879L77.3148 66.9318L77.3113 66.9339C76.825 67.2203 76.3005 67.4093 75.7637 67.501C75.5349 67.6217 75.2753 67.6899 75 67.6899C74.7247 67.6899 74.4651 67.6217 74.2363 67.501C73.6995 67.4093 73.175 67.2203 72.6887 66.9339L72.6852 66.9318L62.3212 60.879L62.3148 60.8753C60.8839 60.0309 60.0017 58.4711 60 56.7824V44.6657C60.0007 43.9286 60.1692 43.216 60.4779 42.5768C60.5138 42.4617 60.5624 42.3487 60.624 42.2398C60.6959 42.1127 60.7815 41.9987 60.8777 41.8985C61.2539 41.3665 61.7401 40.912 62.3148 40.5728L62.3212 40.569ZM80.2425 61.2982L86.0185 57.9249L86.0211 57.9233C86.4199 57.6868 86.6657 57.2515 86.6667 56.7803L86.6667 56.7789V49.9259L80.2425 61.2982ZM76.6667 60.8146V51.7217L84.3789 47.1621L76.6667 60.8146ZM73.3333 51.7217V63.3866L63.9815 57.9249L63.9789 57.9233C63.58 57.6867 63.3341 57.2511 63.3333 56.7796V53.8499L67.9758 56.5894C68.773 57.0598 69.7923 56.7806 70.2525 55.9659C70.7128 55.1512 70.4397 54.1094 69.6425 53.639L63.3333 49.9161V45.8095L73.3333 51.7217Z" fill="url(#paint7_linear)"/>
<path d="M58.6946 114.085H73.0706V109.453H63.4946V107.053H71.3666V102.709H63.4946V100.021H73.0706V95.365H58.6946V114.085Z" fill="#FCFCFC"/>
<path d="M75.7054 100.021H84.1294L75.4174 110.581V114.085H91.3054V109.453H82.5454L91.2814 98.869V95.365H75.7054V100.021Z" fill="#FCFCFC"/>
<path fill-rule="evenodd" clip-rule="evenodd" d="M93.3999 119.085C95.6999 119.085 97.4999 120.885 97.4999 123.085C97.4999 124.585 96.6999 125.785 95.4999 126.585C95.5835 126.627 95.6626 126.668 95.7383 126.708C96.0252 126.86 96.2626 126.985 96.4999 126.985H96.5C96.6001 126.985 96.9999 126.985 97.1999 126.685L98.6999 127.885C98.0999 128.685 97.1999 128.985 96.4999 128.985C95.5459 128.985 94.8407 128.487 94.1511 128C93.6843 127.671 93.2247 127.347 92.6999 127.185C90.7999 126.885 89.2999 125.185 89.2999 123.185C89.2999 120.885 91.0999 119.085 93.3999 119.085ZM93.3999 125.185C94.5999 125.185 95.4999 124.285 95.4999 123.085C95.4999 121.885 94.5999 120.985 93.3999 120.985C92.1999 120.985 91.2999 121.885 91.2999 123.085C91.2999 124.285 92.1999 125.185 93.3999 125.185ZM49.1 122.485H52.8V126.985H51.2V126.285C50.8 126.885 50 127.185 49.2 127.185C47 127.185 45.1 125.385 45.1 123.185C45.1 120.985 47 119.185 49.2 119.185C50.5 119.185 51.7 119.785 52.5 120.785L50.9 121.885C50.5 121.385 49.9 121.085 49.2 121.085C48 121.085 47.1 121.985 47.1 123.185C47.1 124.385 48 125.285 49.2 125.285C49.9 125.285 50.5 124.985 50.9 124.385V124.185H49.1V122.485ZM58.5001 119.285C60.5001 119.285 61.4001 120.585 61.4001 122.085C61.4001 123.185 60.9001 124.185 59.9001 124.685L61.6001 126.985H59.2001L57.7001 124.885H56.7001V126.985H54.7001V119.285H58.5001ZM56.7001 121.185V123.185H58.4001C59.2001 123.185 59.5001 122.685 59.5001 122.185C59.5001 121.585 59.2001 121.185 58.4001 121.185H56.7001ZM70.8 126.985L67.7 119.285H65.7L62.6 126.985H64.8L65.2 125.885H68.2L68.6 126.985H70.8ZM65.8 124.085L66.7 121.785L67.5 124.085H65.8ZM72.2999 119.285H75.6999C77.7999 119.285 78.6999 120.685 78.6999 122.285C78.6999 123.885 77.6999 125.285 75.6999 125.285H74.2999V127.085H72.2999V119.285ZM74.2999 121.085V123.485H75.5999C76.3999 123.485 76.6999 122.985 76.6999 122.285C76.6999 121.685 76.3999 121.085 75.5999 121.085H74.2999ZM87.6 126.985V119.285H85.6V122.285H82.4V119.285H80.4V126.985H82.4V124.085H85.6V126.985H87.6ZM101.2 119.285H99.2001V126.985H104.9V125.085H101.2V119.285Z" fill="#7F818C"/>
<defs>
<filter id="filter0_f" x="53" y="27.6899" width="45" height="48" filterUnits="userSpaceOnUse" color-interpolation-filters="sRGB">
<feFlood flood-opacity="0" result="BackgroundImageFix"/>
<feBlend mode="normal" in="SourceGraphic" in2="BackgroundImageFix" result="shape"/>
<feGaussianBlur stdDeviation="3" result="effect1_foregroundBlur"/>
</filter>
<linearGradient id="paint0_linear" x1="39.4646" y1="18.842" x2="131.501" y2="106.361" gradientUnits="userSpaceOnUse">
<stop stop-color="#47DEFF"/>
<stop offset="1" stop-color="#77FF47"/>
</linearGradient>
<linearGradient id="paint1_linear" x1="39.4646" y1="18.842" x2="131.501" y2="106.361" gradientUnits="userSpaceOnUse">
<stop stop-color="#47DEFF"/>
<stop offset="1" stop-color="#77FF47"/>
</linearGradient>
<linearGradient id="paint2_linear" x1="39.4646" y1="18.842" x2="131.501" y2="106.361" gradientUnits="userSpaceOnUse">
<stop stop-color="#47DEFF"/>
<stop offset="1" stop-color="#77FF47"/>
</linearGradient>
<linearGradient id="paint3_linear" x1="69.0044" y1="33.3084" x2="92.2381" y2="79.1979" gradientUnits="userSpaceOnUse">
<stop stop-color="#47DEFF"/>
<stop offset="1" stop-color="#77FF47"/>
</linearGradient>
<linearGradient id="paint4_linear" x1="69.0044" y1="33.3084" x2="92.2381" y2="79.1979" gradientUnits="userSpaceOnUse">
<stop stop-color="#47DEFF"/>
<stop offset="1" stop-color="#77FF47"/>
</linearGradient>
<linearGradient id="paint5_linear" x1="69.0044" y1="33.3084" x2="92.2381" y2="79.1979" gradientUnits="userSpaceOnUse">
<stop stop-color="#47DEFF"/>
<stop offset="1" stop-color="#77FF47"/>
</linearGradient>
<linearGradient id="paint6_linear" x1="69.0949" y1="33.3296" x2="91.5282" y2="75.9796" gradientUnits="userSpaceOnUse">
<stop stop-color="#47DEFF"/>
<stop offset="1" stop-color="#77FF47"/>
</linearGradient>
<linearGradient id="paint7_linear" x1="69.0949" y1="33.3296" x2="91.5282" y2="75.9796" gradientUnits="userSpaceOnUse">
<stop stop-color="#47DEFF"/>
<stop offset="1" stop-color="#77FF47"/>
</linearGradient>
</defs>
</svg>
